<?xml version="1.0" encoding="iso-8859-1"?>
<!-- Generator: Adobe Illustrator 19.0.0, SVG Export Plug-In . SVG Version: 6.00 Build 0)  -->
<svg version="1.1" width="40px" height="40px" id="Layer_1" xmlns="http://www.w3.org/2000/svg" xmlns:xlink="http://www.w3.org/1999/xlink" x="0px" y="0px"
	 viewBox="0 0 297 297" style="enable-background:new 0 0 297 297;" xml:space="preserve">
<g>
	<g id="XMLID_45_">
		<g>
			<path style="fill:#A5C63B;" d="M81.13,140.2c4.58,0,8.3,3.72,8.3,8.3s-3.72,8.3-8.3,8.3s-8.3-3.72-8.3-8.3
				S76.55,140.2,81.13,140.2z"/>
			<path style="fill:#A5C63B;" d="M148.5,140.2c4.58,0,8.31,3.72,8.31,8.3s-3.73,8.3-8.31,8.3s-8.3-3.72-8.3-8.3
				S143.92,140.2,148.5,140.2z"/>
			<path style="fill:#A5C63B;" d="M215.88,140.2c4.57,0,8.3,3.72,8.3,8.3s-3.73,8.3-8.3,8.3c-4.58,0-8.31-3.72-8.31-8.3
				S211.3,140.2,215.88,140.2z"/>
			<path style="fill:#1ABC9C;" d="M148.5,20.88c70.37,0,127.63,57.25,127.63,127.62S218.87,276.12,148.5,276.12
				S20.88,218.87,20.88,148.5S78.13,20.88,148.5,20.88z M245.06,148.5c0-16.09-13.09-29.18-29.18-29.18s-29.19,13.09-29.19,29.18
				s13.1,29.18,29.19,29.18S245.06,164.59,245.06,148.5z M177.68,148.5c0-16.09-13.09-29.18-29.18-29.18s-29.18,13.09-29.18,29.18
				s13.09,29.18,29.18,29.18S177.68,164.59,177.68,148.5z M110.31,148.5c0-16.09-13.09-29.18-29.18-29.18s-29.18,13.09-29.18,29.18
				s13.09,29.18,29.18,29.18S110.31,164.59,110.31,148.5z"/>
			<path d="M148.5,0C230.39,0,297,66.62,297,148.5S230.39,297,148.5,297C66.62,297,0,230.38,0,148.5S66.62,0,148.5,0z M276.13,148.5
				c0-70.37-57.26-127.62-127.63-127.62S20.88,78.13,20.88,148.5S78.13,276.12,148.5,276.12S276.13,218.87,276.13,148.5z"/>
			<path d="M215.88,119.32c16.09,0,29.18,13.09,29.18,29.18s-13.09,29.18-29.18,29.18s-29.19-13.09-29.19-29.18
				S199.79,119.32,215.88,119.32z M224.18,148.5c0-4.58-3.73-8.3-8.3-8.3c-4.58,0-8.31,3.72-8.31,8.3s3.73,8.3,8.31,8.3
				C220.45,156.8,224.18,153.08,224.18,148.5z"/>
			<path d="M148.5,119.32c16.09,0,29.18,13.09,29.18,29.18s-13.09,29.18-29.18,29.18s-29.18-13.09-29.18-29.18
				S132.41,119.32,148.5,119.32z M156.81,148.5c0-4.58-3.73-8.3-8.31-8.3s-8.3,3.72-8.3,8.3s3.72,8.3,8.3,8.3
				S156.81,153.08,156.81,148.5z"/>
			<path d="M81.13,119.32c16.09,0,29.18,13.09,29.18,29.18s-13.09,29.18-29.18,29.18s-29.18-13.09-29.18-29.18
				S65.04,119.32,81.13,119.32z M89.43,148.5c0-4.58-3.72-8.3-8.3-8.3s-8.3,3.72-8.3,8.3s3.72,8.3,8.3,8.3S89.43,153.08,89.43,148.5
				z"/>
		</g>
	</g>
</g>
<g>
</g>
<g>
</g>
<g>
</g>
<g>
</g>
<g>
</g>
<g>
</g>
<g>
</g>
<g>
</g>
<g>
</g>
<g>
</g>
<g>
</g>
<g>
</g>
<g>
</g>
<g>
</g>
<g>
</g>
</svg>
